<?xml version="1.0" encoding="UTF-8"?> <svg xmlns="http://www.w3.org/2000/svg" width="241" height="50" viewBox="0 0 241 50" fill="none"><path d="M221.075 27.9161C221.075 21.7714 217.552 17.8101 211.565 17.8101C206.638 17.8101 202.086 21.8961 202.086 28.0409C202.086 34.6535 206.763 38.49 212.033 38.49C216.71 38.49 219.797 35.7452 220.826 32.3453L216.897 31.0976C216.242 33.0315 214.808 34.4975 212.033 34.4975C209.164 34.4975 206.826 32.5325 206.701 29.5693H220.919C221.013 29.4757 221.075 28.6647 221.075 27.9161ZM206.857 25.9822C207.013 23.8924 208.696 21.6778 211.627 21.6778C214.839 21.6778 216.336 23.7053 216.429 25.9822H206.857Z" fill="white"></path><path d="M232.363 26.3254L229.276 25.7328C228.029 25.4832 227.249 24.7346 227.249 23.7053C227.249 22.52 228.465 21.4595 230.149 21.4595C232.862 21.4595 233.704 23.2686 233.891 24.3915L237.944 23.2686C237.601 21.3348 235.793 17.8413 230.149 17.8413C225.971 17.8413 222.728 20.7109 222.728 24.1108C222.728 26.7933 224.599 29.0391 228.153 29.7877L231.147 30.4115C232.768 30.7234 233.517 31.5344 233.517 32.5637C233.517 33.749 232.488 34.8095 230.492 34.8095C227.904 34.8095 226.563 33.2499 226.376 31.5032L222.198 32.6261C222.447 34.8407 224.692 38.4901 230.554 38.4901C235.699 38.4901 238.194 35.215 238.194 32.2518C238.194 29.351 236.198 27.1052 232.363 26.3254Z" fill="white"></path><path d="M59.3069 16.1259V17.9038H63.3293V22.7697H59.3069V38.3655H53.8813V22.7697H50.3267V17.935H53.8813V16.0012C53.8813 10.9793 57.0306 7.7666 61.8949 7.7666C63.1733 7.7666 64.2959 8.01613 64.7324 8.20328V12.7884C64.2023 12.6325 63.5475 12.5701 62.7992 12.5701C61.7702 12.5701 59.3069 12.9132 59.3069 16.1259Z" fill="white"></path><path d="M73.1201 11.6029C73.1201 13.3496 71.717 14.7221 69.9397 14.7221C68.2247 14.7221 66.8215 13.3185 66.8215 11.6029C66.8215 9.8562 68.2247 8.42139 69.9397 8.42139C71.717 8.45258 73.1201 9.8562 73.1201 11.6029Z" fill="white"></path><path d="M72.6526 17.9351H67.3206V38.4279H72.6526V17.9351Z" fill="white"></path><path d="M160.771 17.9351H155.439V38.4279H160.771V17.9351Z" fill="white"></path><path d="M161.238 11.6029C161.238 13.3496 159.835 14.7221 158.058 14.7221C156.343 14.7221 154.94 13.3185 154.94 11.6029C154.94 9.8562 156.343 8.42139 158.058 8.42139C159.835 8.45258 161.238 9.8562 161.238 11.6029Z" fill="white"></path><path d="M129.964 25.3276H121.42V30.0999H129.964V25.3276Z" fill="white"></path><path d="M179.885 21.99L169.252 34.217H179.885V38.3967H163.421V34.217L173.929 22.1147H163.421V17.9351H179.885V21.99Z" fill="white"></path><path d="M200.589 26.7936V38.3656H195.818V26.7C195.818 22.957 193.48 22.1772 191.547 22.1772C188.927 22.1772 187.244 24.0799 187.244 26.9807V38.3968H182.317L182.255 17.9352H187.088V19.4948L187.212 19.37C188.522 17.9976 190.674 17.748 192.108 17.748C192.264 17.748 192.42 17.748 192.576 17.748C195.07 17.8416 197.003 18.5902 198.344 19.9626C199.81 21.491 200.589 23.7992 200.589 26.7936Z" fill="white"></path><path d="M108.293 17.748C102.586 17.748 97.9717 22.3956 97.9717 28.0724C97.9717 33.7805 102.618 38.3968 108.293 38.3968C113.999 38.3968 118.614 33.7493 118.614 28.0724C118.614 22.3644 113.999 17.748 108.293 17.748ZM108.293 33.7805C105.143 33.7805 102.587 31.2228 102.587 28.0724C102.587 24.9221 105.143 22.3644 108.293 22.3644C111.442 22.3644 113.999 24.9221 113.999 28.0724C114.03 31.2228 111.442 33.7805 108.293 33.7805Z" fill="white"></path><path d="M95.8201 27.5418V8.45264H90.4882V19.0266L90.3946 18.9642C88.8979 18.1532 87.2141 17.7165 85.4992 17.7165C79.793 17.7477 75.147 22.3641 75.147 28.0721C75.147 33.7801 79.793 38.3965 85.468 38.3965C87.1829 38.3965 88.8667 37.9598 90.3634 37.1488L90.457 37.0864V38.3653H95.789V28.6024C95.789 28.4152 95.789 28.2593 95.789 28.0721C95.8202 27.885 95.8201 27.6978 95.8201 27.5418ZM90.4882 30.8793C89.4592 32.6884 87.5571 33.7801 85.4992 33.7801C82.3498 33.7801 79.793 31.2224 79.793 28.0721C79.793 24.9218 82.3498 22.3641 85.4992 22.3641C87.5571 22.3641 89.4592 23.4869 90.4882 25.2649C90.9559 26.107 91.2365 27.074 91.2365 28.0721C91.2053 29.0702 90.9559 30.0372 90.4882 30.8793Z" fill="white"></path><path d="M143.153 17.7477C141.438 17.7477 139.754 18.1844 138.258 18.9954L138.133 19.0266V8.45264H132.801V38.4277H138.133V37.1176L138.227 37.18C139.723 37.991 141.438 38.4277 143.122 38.4277C148.828 38.4277 153.443 33.7801 153.443 28.1033C153.474 22.3641 148.828 17.7477 143.153 17.7477ZM143.153 33.7801C141.095 33.7801 139.162 32.6573 138.164 30.8481C137.696 30.006 137.447 29.039 137.447 28.0721C137.447 27.1052 137.696 26.1382 138.164 25.2961C139.162 23.4869 141.095 22.3641 143.153 22.3641C146.303 22.3641 148.859 24.9218 148.859 28.0721C148.859 31.2224 146.303 33.7801 143.153 33.7801Z" fill="white"></path><path d="M27.8761 20.8671C29.3728 18.9332 30.2147 16.5627 30.2147 14.0986C30.1835 8.23455 25.5999 3.43106 19.769 3.11914H19.426V9.1391L19.7066 9.17029C22.2323 9.41983 24.1656 11.5409 24.1656 14.0986C24.1656 16.6563 22.2635 18.7773 19.7066 19.0268L19.426 19.058V25.078H20.2679C21.3281 25.078 22.8559 25.2651 23.8226 25.7018C25.9741 26.6687 27.5331 28.5714 27.5331 31.0667C27.5331 34.373 24.758 37.0555 21.4528 37.0555H12.4414V43.0755H21.5463C28.1879 43.0755 33.5823 37.6793 33.5823 31.0355C33.5511 26.9183 31.3996 23.0505 27.8761 20.8671Z" fill="white"></path><path d="M17.0251 19.058H9.94694V9.1391H17.0251V3.11914H3.92896V43.1067H9.94694V25.078H17.0251V19.058Z" fill="white"></path></svg> 